<?xml version="1.0" encoding="UTF-8"?>
<svg id="Camada_1" xmlns="http://www.w3.org/2000/svg" version="1.1" xmlns:xlink="http://www.w3.org/1999/xlink" viewBox="0 0 798.4 363.3">
  <!-- Generator: Adobe Illustrator 29.7.1, SVG Export Plug-In . SVG Version: 2.1.1 Build 8)  -->
  <defs>
    <style>
      .st0 {
        fill: #fff;
      }

      .st1 {
        fill: #47ea89;
      }

      .st2 {
        fill: none;
      }

      .st3 {
        clip-path: url(#clippath);
      }
    </style>
    <clipPath id="clippath">
      <rect class="st2" width="798.4" height="363.3"/>
    </clipPath>
  </defs>
  <g class="st3">
    <path class="st1" d="M148.3,187.4c3.4-1.4,6.6-3.2,9.5-5.4-5.5-8.1-8.6-18.8-8.6-30.9,0-18.4,8.3-28.6,20.7-28.6s19.6,9.3,19.6,25.2-4.7,24.6-12.7,34.1c3.3,2.2,7,3.3,11.2,3.3h3.2v13h-3.9c-8,0-15-2.5-20.8-6.8-3.9,2.8-8.3,5.2-13,6.8l-5.2-10.8ZM168,171.7c5-7,7.8-15.3,7.8-24s-2.3-12.2-6-12.2-6.6,4.7-6.6,14.7,1.8,15.6,4.9,21.5"/>
    <path class="st1" d="M195.6,171.8c0-15.7,12.2-27.6,28.3-27.6s28.3,11.9,28.3,27.6-12.2,27.6-28.3,27.6-28.3-11.9-28.3-27.6M238.4,171.8c0-8.3-6.1-14.6-14.5-14.6s-14.5,6.3-14.5,14.6,6.2,14.6,14.5,14.6,14.5-6.3,14.5-14.6"/>
    <rect class="st1" x="262" y="145.4" width="13.4" height="52.7"/>
    <path class="st1" d="M288.5,145.4h13.4v5.9c4.1-4.7,9.9-7.1,16.8-7.1,12.4,0,20.6,8.1,20.6,20.5v16c0,2.8,1.7,4.4,4.4,4.4h1.1v13h-3.8c-10,0-15.2-5-15.2-14.6v-14.6c0-7.1-4.5-11.8-11.5-11.8s-12.4,4.8-12.4,12v28.9h-13.4v-52.7Z"/>
    <path class="st1" d="M355.9,181.5v-23.8h-8.4v-12.3h4.8c2.8,0,4.3-1.4,4.3-4.2v-9.8h12.7v14.1h12.2v12.3h-12.2v21.5c0,4.1,2.6,6.6,6.9,6.6h5.3v12.3h-7.2c-12.1,0-18.4-5.8-18.4-16.6"/>
    <path class="st1" d="M387.4,171.8c0-15.7,12.2-27.6,28.3-27.6s28.3,11.9,28.3,27.7-.1,3.3-.4,4.5h-41.9c1.8,6.8,7.1,11.3,14.4,11.3s10.2-2.5,12.5-5.9h14.6c-4,10.4-14.5,17.6-27.3,17.6s-28.5-11.9-28.5-27.6M401.8,166.6h27.7c-1.7-6.4-7-10.8-13.9-10.8s-12,4.2-13.9,10.8"/>
    <path class="st1" d="M475.9,142.6c3-1.7,6.4-2.6,10.3-2.6v15.2h-3.8c-4.5,0-8,1.1-10.3,3.2-2.3,2.1-3.5,5.9-3.5,11.2v28.5h-14.5v-57.3h14.5v8.9c1.9-3,4.3-5.4,7.3-7.1"/>
    <path class="st1" d="M557.5,206.1c12.6-15.3,20.4-34.1,21.4-53.5h0c-.3-11-2.4-21.3-3.8-27-5.7-14.2-17.1-22.1-32.2-22.1-22.7,0-37.7,18.3-37.7,50.6s5.1,38.6,14.3,52.6c-4.9,3.3-10.3,6.2-16,8.3l9.6,20c26.1-4.3,44.5-28.8,44.3-28.8M532.5,152.1c0-15.8,4-23,10-23s9.3,6.7,9.3,19-4.4,27-12,38.3c-4.7-9.6-7.3-21.4-7.3-34.3"/>
    <path class="st1" d="M547.7,230.9c7.8,3.4,16.4,5.3,25.8,5.3h7.1c5.4,15.1,17.2,23.6,32.7,23.6,22.7,0,37.7-18.3,37.7-50.6s-3.6-33-10.4-45.8c-8.1,4.2-19.5,15.8-20.5,22.9,2.3,7.6,3.6,16,3.6,25,0,15.8-4,23-10,23s-9.3-6.7-9.3-19,3-22.4,8.4-32.3c11.3-24.2,34.1-32.5,39.7-34.6l-10.2-21.2c-8.3,2.9-16,6.7-23,11.4-9.5-6.7-20.7-10.7-33.2-11.3,1.4,6.6,3,16.3,3.2,26.4,3.3.8,6.4,2,9.3,3.6-12.6,15.3-20.4,34.1-21.4,53.5h-2.5c-2.7,0-5.3-.3-7.9-.9-.4,0-5.8,11.9-19.3,21.1"/>
  </g>
  <g>
    <path class="st0" d="M146.9,225c0-6,4.7-10.6,10.8-10.6s8.7,2.8,10,6.7h-4c-1.2-2-3.4-3.2-6-3.2-4,0-7.1,3.1-7.1,7.2s3.1,7.2,7.1,7.2,6.1-2.1,6.7-5h-6v-3.2h9.8v1.2c0,5.9-4.5,10.4-10.5,10.4s-10.8-4.6-10.8-10.6Z"/>
    <path class="st0" d="M170.5,227.7c0-4.5,3.5-7.9,8.1-7.9s8.1,3.4,8.1,8,0,.9,0,1.2h-12.5c.5,2.2,2.3,3.7,4.7,3.7s3.3-.8,4-1.9h3.7c-1.2,2.9-4.2,4.9-7.8,4.9s-8.2-3.4-8.2-7.9ZM174.1,226.2h9c-.5-2.1-2.3-3.5-4.5-3.5s-4,1.4-4.5,3.5Z"/>
    <path class="st0" d="M188.6,230.8h3.4c0,1.2,1.1,1.9,2.7,1.9s2.5-.7,2.5-1.6c0-2.7-8.3-1.2-8.3-6.6s2.3-4.8,5.7-4.8,5.8,1.9,5.8,4.6h-3.4c0-1-1-1.8-2.4-1.8s-2.3.6-2.3,1.5c0,2.6,8.3,1.2,8.3,6.6s-2.3,4.9-5.9,4.9-6.1-2-6.1-4.8Z"/>
    <path class="st0" d="M204.5,230.6v-7.5h-2.6v-3h1.5c.8,0,1.2-.4,1.2-1.2v-2.9h3.1v4.1h3.7v3h-3.7v6.9c0,1.3.8,2.1,2.2,2.1h1.5v3.1h-2c-3.3,0-5.1-1.7-5.1-4.7Z"/>
    <path class="st0" d="M213.7,227.7c0-4.5,3.2-7.9,7.5-7.9s4.1,1,5.3,2.5v-2.2h3.3v15.2h-3.3v-2.2c-1.2,1.6-3.1,2.5-5.3,2.5-4.3,0-7.5-3.4-7.5-7.9ZM220.7,216.8c-.7,0-1.3.6-1.3,1.3h-2.3c0-2.2,1.1-3.9,3.2-3.9s2.4,1.4,3.6,1.4,1.2-.6,1.2-1.3h2.4c0,2.3-1.2,3.9-3.2,3.9s-2.4-1.4-3.5-1.4ZM226.4,227.7c0-2.7-2-4.7-4.7-4.7s-4.7,2-4.7,4.7,2,4.7,4.7,4.7,4.7-2,4.7-4.7Z"/>
    <path class="st0" d="M232.8,227.7c0-4.5,3.5-7.9,8.1-7.9s8.1,3.4,8.1,7.9-3.5,7.9-8.1,7.9-8.1-3.4-8.1-7.9ZM245.6,227.7c0-2.7-2-4.7-4.7-4.7s-4.7,2-4.7,4.7,2,4.7,4.7,4.7,4.7-2,4.7-4.7Z"/>
    <path class="st0" d="M259,220.1h3.3v2.2c1.3-1.6,3.1-2.5,5.3-2.5,4.2,0,7.5,3.4,7.5,7.9s-3.2,7.9-7.5,7.9-4.1-1-5.3-2.5v7.8h-3.3v-20.8ZM271.7,227.7c0-2.7-2-4.7-4.7-4.7s-4.7,2-4.7,4.7,2,4.7,4.7,4.7,4.7-2,4.7-4.7Z"/>
    <path class="st0" d="M277.3,227.7c0-4.5,3.2-7.9,7.5-7.9s4.1,1,5.3,2.5v-2.2h3.3v15.2h-3.3v-2.2c-1.2,1.6-3.1,2.5-5.3,2.5-4.3,0-7.5-3.4-7.5-7.9ZM290.1,227.7c0-2.7-2-4.7-4.7-4.7s-4.7,2-4.7,4.7,2,4.7,4.7,4.7,4.7-2,4.7-4.7Z"/>
    <path class="st0" d="M297.4,220.1h3.3v2.5c1.2-1.7,2.9-2.8,5.1-2.8h.5v3.4h-.5c-3.2,0-5.1,1.8-5.1,4.6v7.4h-3.3v-15.2Z"/>
    <path class="st0" d="M307.3,227.7c0-4.5,3.2-7.9,7.5-7.9s4.1,1,5.3,2.5v-2.2h3.3v15.2h-3.3v-2.2c-1.2,1.6-3.1,2.5-5.3,2.5-4.3,0-7.5-3.4-7.5-7.9ZM320.1,227.7c0-2.7-2-4.7-4.7-4.7s-4.7,2-4.7,4.7,2,4.7,4.7,4.7,4.7-2,4.7-4.7Z"/>
    <path class="st0" d="M334.6,214.8h3.5v17.2h9.1v3.3h-12.6v-20.5Z"/>
    <path class="st0" d="M348.7,227.7c0-4.5,3.5-7.9,8.1-7.9s8.1,3.4,8.1,7.9-3.5,7.9-8.1,7.9-8.1-3.4-8.1-7.9ZM361.5,227.7c0-2.7-2-4.7-4.7-4.7s-4.7,2-4.7,4.7,2,4.7,4.7,4.7,4.7-2,4.7-4.7Z"/>
    <path class="st0" d="M367,227.7c0-4.5,3.5-7.9,8.1-7.9s7.1,2.5,7.7,6.1h-3.5c-.5-1.7-2.2-2.9-4.2-2.9s-4.7,2-4.7,4.7,2,4.7,4.7,4.7,3.6-1.2,4.2-2.9h3.5c-.6,3.6-3.7,6.1-7.7,6.1s-8.1-3.4-8.1-7.9Z"/>
    <path class="st0" d="M384.9,227.7c0-4.5,3.2-7.9,7.5-7.9s4.1,1,5.3,2.5v-2.2h3.3v15.2h-3.3v-2.2c-1.2,1.6-3.1,2.5-5.3,2.5-4.3,0-7.5-3.4-7.5-7.9ZM397.7,227.7c0-2.7-2-4.7-4.7-4.7s-4.7,2-4.7,4.7,2,4.7,4.7,4.7,4.7-2,4.7-4.7Z"/>
    <path class="st0" d="M404.1,227.7c0-4.5,3.2-7.9,7.5-7.9s4.1,1,5.3,2.5v-8.4h3.3v21.4h-3.3v-2.2c-1.2,1.6-3.1,2.5-5.3,2.5-4.3,0-7.5-3.4-7.5-7.9ZM416.9,227.7c0-2.7-2-4.7-4.7-4.7s-4.7,2-4.7,4.7,2,4.7,4.7,4.7,4.7-2,4.7-4.7Z"/>
    <path class="st0" d="M423.3,227.7c0-4.5,3.5-7.9,8.1-7.9s8.1,3.4,8.1,7.9-3.5,7.9-8.1,7.9-8.1-3.4-8.1-7.9ZM436,227.7c0-2.7-2-4.7-4.7-4.7s-4.7,2-4.7,4.7,2,4.7,4.7,4.7,4.7-2,4.7-4.7Z"/>
    <path class="st0" d="M442.5,220.1h3.3v2.5c1.2-1.7,2.9-2.8,5.1-2.8h.5v3.4h-.5c-3.2,0-5.1,1.8-5.1,4.6v7.4h-3.3v-15.2Z"/>
    <path class="st0" d="M452.4,227.7c0-4.5,3.2-7.9,7.5-7.9s4.1,1,5.3,2.5v-2.2h3.3v15.2h-3.3v-2.2c-1.2,1.6-3.1,2.5-5.3,2.5-4.3,0-7.5-3.4-7.5-7.9ZM465.2,227.7c0-2.7-2-4.7-4.7-4.7s-4.7,2-4.7,4.7,2,4.7,4.7,4.7,4.7-2,4.7-4.7Z"/>
    <path class="st0" d="M471.5,230.8h3.4c0,1.2,1.1,1.9,2.7,1.9s2.5-.7,2.5-1.6c0-2.7-8.3-1.2-8.3-6.6s2.3-4.8,5.7-4.8,5.8,1.9,5.8,4.6h-3.4c0-1-1-1.8-2.4-1.8s-2.3.6-2.3,1.5c0,2.6,8.3,1.2,8.3,6.6s-2.3,4.9-5.9,4.9-6.1-2-6.1-4.8Z"/>
  </g>
</svg>