<?xml version="1.0" encoding="UTF-8"?>
<svg id="Camada_1" xmlns="http://www.w3.org/2000/svg" version="1.1" viewBox="0 0 1080 1080">
  <!-- Generator: Adobe Illustrator 29.7.1, SVG Export Plug-In . SVG Version: 2.1.1 Build 8)  -->
  <defs>
    <style>
      .st0 {
        fill: #47ea89;
      }
    </style>
  </defs>
  <path class="st0" d="M434.8,664.7c64.3-78,103.8-173.5,109.2-272.4h0c-1.7-56.1-12.4-108.7-19.4-137.6-28.8-72.2-87.1-112.7-163.7-112.7-115.4,0-192.1,93.3-192.1,257.7s25.9,196.7,73,267.8c-24.9,16.6-52.6,31.4-81.3,42.5l48.6,101.6c132.9-21.7,226.5-146.4,225.7-146.9M307.3,389.4c0-80.4,20.3-117.3,50.8-117.3s47.1,34.2,47.1,97-22.2,137.6-61,194.9c-24-48.9-36.9-109-36.9-174.6"/>
  <path class="st0" d="M384.9,791c39.6,17.4,83.5,27,131.2,27h36.4c27.7,76.9,87.4,120.1,166.7,120.1,115.4,0,192.1-93.3,192.1-257.7s-18.6-167.9-52.7-233.3c-41.1,21.3-99.2,80.3-104.2,116.4,11.9,38.5,18.4,81.4,18.4,127.1,0,80.4-20.3,117.3-50.8,117.3s-47.1-34.2-47.1-97,15.4-114.3,42.7-164.4c57.5-123.4,173.5-165.3,202.1-176.4l-51.7-108c-42.5,14.8-81.3,34.2-117.3,58.2-48.3-33.9-105.2-54.3-169.1-57.5,7.2,33.8,15.4,82.8,16.3,134.4,16.7,3.9,32.5,10,47.4,18.3-64.3,78-103.8,173.5-109.2,272.4h-12.6c-13.9,0-27.2-1.5-40-4.4-2.2-.5-29.6,60.4-98.5,107.7"/>
</svg>